<svg id="visual" viewBox="0 0 1920 700" width="1920" height="700" xmlns="http://www.w3.org/2000/svg" xmlns:xlink="http://www.w3.org/1999/xlink" version="1.1"><g stroke-width="1" stroke-linejoin="bevel"><path d="M1073.7 381L866.3 488L1032.7 524Z" fill="#0e0d10" stroke="#0e0d10"></path><path d="M1073.7 381L814.3 362L866.3 488Z" fill="#0d0c0f" stroke="#0d0c0f"></path><path d="M1073.7 381L1042.7 207L814.3 362Z" fill="#0c0c0e" stroke="#0c0c0e"></path><path d="M1042.7 207L878.3 161L814.3 362Z" fill="#0c0c0e" stroke="#0c0c0e"></path><path d="M867.3 700L1054.7 700L1032.7 524Z" fill="#0d0c0f" stroke="#0d0c0f"></path><path d="M1306 488L1260 366L1073.7 381Z" fill="#0e0d10" stroke="#0e0d10"></path><path d="M662 515L867.3 700L866.3 488Z" fill="#0d0d10" stroke="#0d0d10"></path><path d="M866.3 488L867.3 700L1032.7 524Z" fill="#111013" stroke="#111013"></path><path d="M1306 488L1073.7 381L1032.7 524Z" fill="#111013" stroke="#111013"></path><path d="M1073.7 381L1260 366L1042.7 207Z" fill="#100f12" stroke="#100f12"></path><path d="M627 358L662 515L814.3 362Z" fill="#0b0b0d" stroke="#0b0b0d"></path><path d="M814.3 362L662 515L866.3 488Z" fill="#111013" stroke="#111013"></path><path d="M1269 700L1306 488L1032.7 524Z" fill="#0c0c0e" stroke="#0c0c0e"></path><path d="M668 175L627 358L814.3 362Z" fill="#0c0c0e" stroke="#0c0c0e"></path><path d="M1478.3 373L1291 213L1260 366Z" fill="#111013" stroke="#111013"></path><path d="M1260 366L1291 213L1042.7 207Z" fill="#0d0c0f" stroke="#0d0c0f"></path><path d="M1042.7 207L1034.7 0L878.3 161Z" fill="#111013" stroke="#111013"></path><path d="M878.3 161L668 175L814.3 362Z" fill="#0c0c0e" stroke="#0c0c0e"></path><path d="M1054.7 700L1269 700L1032.7 524Z" fill="#0d0c0f" stroke="#0d0c0f"></path><path d="M1289 0L1034.7 0L1042.7 207Z" fill="#0f0e11" stroke="#0f0e11"></path><path d="M878.3 161L839.3 0L668 175Z" fill="#121114" stroke="#121114"></path><path d="M463.7 508L628 700L662 515Z" fill="#111013" stroke="#111013"></path><path d="M662 515L628 700L867.3 700Z" fill="#0d0c0f" stroke="#0d0c0f"></path><path d="M1034.7 0L839.3 0L878.3 161Z" fill="#0b0b0d" stroke="#0b0b0d"></path><path d="M388.7 206L463.7 379L627 358Z" fill="#100f12" stroke="#100f12"></path><path d="M627 358L463.7 508L662 515Z" fill="#0c0c0e" stroke="#0c0c0e"></path><path d="M388.7 206L627 358L668 175Z" fill="#0c0c0e" stroke="#0c0c0e"></path><path d="M463.7 379L463.7 508L627 358Z" fill="#111013" stroke="#111013"></path><path d="M1306 488L1478.3 373L1260 366Z" fill="#0f0e11" stroke="#0f0e11"></path><path d="M1510.3 526L1478.3 373L1306 488Z" fill="#121114" stroke="#121114"></path><path d="M839.3 0L654 0L668 175Z" fill="#111013" stroke="#111013"></path><path d="M1291 213L1289 0L1042.7 207Z" fill="#0d0d10" stroke="#0d0d10"></path><path d="M1463.3 150L1289 0L1291 213Z" fill="#0d0d10" stroke="#0d0d10"></path><path d="M1468.3 700L1510.3 526L1306 488Z" fill="#111013" stroke="#111013"></path><path d="M1514.3 0L1463.3 150L1709.7 168Z" fill="#0d0d10" stroke="#0d0d10"></path><path d="M1478.3 373L1463.3 150L1291 213Z" fill="#0b0b0d" stroke="#0b0b0d"></path><path d="M1269 700L1468.3 700L1306 488Z" fill="#111013" stroke="#111013"></path><path d="M214.3 552L424.7 700L463.7 508Z" fill="#121114" stroke="#121114"></path><path d="M463.7 508L424.7 700L628 700Z" fill="#111013" stroke="#111013"></path><path d="M444.7 0L388.7 206L668 175Z" fill="#0c0c0e" stroke="#0c0c0e"></path><path d="M463.7 379L233.3 389L463.7 508Z" fill="#0d0d10" stroke="#0d0d10"></path><path d="M654 0L444.7 0L668 175Z" fill="#0b0b0d" stroke="#0b0b0d"></path><path d="M1707.7 329L1463.3 150L1478.3 373Z" fill="#100f12" stroke="#100f12"></path><path d="M1463.3 150L1514.3 0L1289 0Z" fill="#100f12" stroke="#100f12"></path><path d="M1734.7 700L1690.7 485L1510.3 526Z" fill="#111013" stroke="#111013"></path><path d="M1510.3 526L1690.7 485L1478.3 373Z" fill="#111013" stroke="#111013"></path><path d="M206.3 178L233.3 389L388.7 206Z" fill="#0b0b0d" stroke="#0b0b0d"></path><path d="M388.7 206L233.3 389L463.7 379Z" fill="#0e0d10" stroke="#0e0d10"></path><path d="M1690.7 485L1707.7 329L1478.3 373Z" fill="#0e0d10" stroke="#0e0d10"></path><path d="M233.3 389L214.3 552L463.7 508Z" fill="#100f12" stroke="#100f12"></path><path d="M214.3 552L237.3 700L424.7 700Z" fill="#0c0c0e" stroke="#0c0c0e"></path><path d="M1707.7 329L1709.7 168L1463.3 150Z" fill="#0d0c0f" stroke="#0d0c0f"></path><path d="M203.3 0L206.3 178L388.7 206Z" fill="#111013" stroke="#111013"></path><path d="M233.3 389L0 493L214.3 552Z" fill="#100f12" stroke="#100f12"></path><path d="M1468.3 700L1734.7 700L1510.3 526Z" fill="#0d0c0f" stroke="#0d0c0f"></path><path d="M1690.7 485L1920 373L1707.7 329Z" fill="#100f12" stroke="#100f12"></path><path d="M1707.7 329L1920 189L1709.7 168Z" fill="#111013" stroke="#111013"></path><path d="M1920 0L1710.7 0L1709.7 168Z" fill="#100f12" stroke="#100f12"></path><path d="M1709.7 168L1710.7 0L1514.3 0Z" fill="#0c0c0e" stroke="#0c0c0e"></path><path d="M444.7 0L203.3 0L388.7 206Z" fill="#0b0b0d" stroke="#0b0b0d"></path><path d="M1920 548L1920 373L1690.7 485Z" fill="#0e0d10" stroke="#0e0d10"></path><path d="M1734.7 700L1920 548L1690.7 485Z" fill="#0f0e11" stroke="#0f0e11"></path><path d="M0 332L0 493L233.3 389Z" fill="#0c0c0e" stroke="#0c0c0e"></path><path d="M214.3 552L0 700L237.3 700Z" fill="#0d0d10" stroke="#0d0d10"></path><path d="M0 332L233.3 389L206.3 178Z" fill="#0b0b0d" stroke="#0b0b0d"></path><path d="M0 165L0 332L206.3 178Z" fill="#0c0c0e" stroke="#0c0c0e"></path><path d="M1920 373L1920 189L1707.7 329Z" fill="#100f12" stroke="#100f12"></path><path d="M1734.7 700L1920 700L1920 548Z" fill="#0d0d10" stroke="#0d0d10"></path><path d="M203.3 0L0 165L206.3 178Z" fill="#111013" stroke="#111013"></path><path d="M0 493L0 700L214.3 552Z" fill="#121114" stroke="#121114"></path><path d="M1920 189L1920 0L1709.7 168Z" fill="#0c0c0e" stroke="#0c0c0e"></path><path d="M203.3 0L0 0L0 165Z" fill="#0d0c0f" stroke="#0d0c0f"></path></g></svg>