<svg width="1920" height="540" viewBox="0 0 1920 540" fill="none" xmlns="http://www.w3.org/2000/svg">
<g clip-path="url(#clip0_5_2)">
<path d="M1928.03 46.4953L1832.21 129.924C1736.38 213.352 1544.74 380.209 1334.08 433.433C1123.46 486.855 893.784 426.446 670.193 402.391C446.569 378.138 228.996 390.04 17.0742 435.715C-194.848 481.39 -401.118 560.836 -606.723 644.256C-812.329 727.676 -1017.27 815.069 -1119.74 858.766L-1222.21 902.462L-1137.77 1407.06L-1030.98 1389.19C-924.186 1371.32 -710.602 1335.57 -497.018 1299.83C-283.434 1264.09 -69.8496 1228.35 143.734 1192.61C357.318 1156.87 570.902 1121.12 784.486 1085.38C998.071 1049.64 1211.65 1013.9 1425.24 978.156C1638.82 942.415 1852.41 906.673 1959.2 888.802L2065.99 870.931L1928.03 46.4953Z" fill="#5A4022"/>
<path d="M-121.635 422.306L-21.3335 453.135C78.9685 483.963 279.572 545.621 468.477 529.463C657.403 513.44 834.608 419.466 1015.56 350.387C1196.48 281.172 1381.14 236.717 1569.26 215.389C1757.39 194.061 1949 195.86 2141.01 200.38C2333.02 204.9 2525.45 212.141 2621.66 215.761L2717.87 219.382L2769.82 564.929L2676.27 578.994C2582.71 593.059 2395.61 621.189 2208.5 649.319C2021.4 677.449 1834.29 705.579 1647.19 733.709C1460.08 761.839 1272.98 789.97 1085.87 818.1C898.77 846.23 711.665 874.36 524.56 902.49C337.455 930.62 150.35 958.75 56.7974 972.815L-36.755 986.88L-121.635 422.306Z" fill="#795222"/>
<path d="M1990.55 281L1901.26 304.98C1811.92 328.429 1633.33 376.388 1451.3 379.766C1269.27 383.143 1083.79 341.939 906.965 412.72C730.137 483.501 561.874 665.206 388.612 782.161C215.308 898.585 36.9639 949.729 -52.2082 975.301L-141.38 1000.87L-74.9917 1860.67L15.6147 1853.67C106.221 1846.67 287.434 1832.68 468.647 1818.69C649.86 1804.7 831.072 1790.7 1012.29 1776.71C1193.5 1762.72 1374.71 1748.73 1555.92 1734.73C1737.14 1720.74 1918.35 1706.75 2008.96 1699.75L2099.56 1692.76L1990.55 281Z" fill="#885B22"/>
</g>
<defs>
<clipPath id="clip0_5_2">
<rect width="3248.31" height="1208.53" fill="white" transform="translate(-1337.57 213.115) rotate(-9.5)"/>
</clipPath>
</defs>
</svg>
