<svg width="1920" height="540" viewBox="0 0 1920 540" fill="none" xmlns="http://www.w3.org/2000/svg">
<g clip-path="url(#clip0_8_10)">
<g clip-path="url(#clip1_8_10)">
<path d="M-205.038 395.745L-61.9862 431.689C81.0656 467.632 367.169 539.518 645.877 527.818C924.597 516.263 1195.91 420.976 1469.59 352.43C1743.25 283.738 2019.27 241.642 2297.49 224.389C2575.7 207.135 2856.12 214.724 3136.79 225.235C3417.46 235.747 3698.39 249.181 3838.86 255.898L3979.33 262.615L4012.17 633.788L3873.38 646.068C3734.6 658.348 3457.03 682.908 3179.46 707.468C2901.89 732.029 2624.32 756.589 2346.75 781.149C2069.18 805.709 1791.61 830.269 1514.04 854.829C1236.47 879.389 958.901 903.949 681.331 928.51C403.761 953.07 126.192 977.63 -12.5932 989.91L-151.378 1002.19L-205.038 395.745Z" fill="#1D1C21"/>
</g>
</g>
<defs>
<clipPath id="clip0_8_10">
<rect width="1920" height="540" fill="white"/>
</clipPath>
<clipPath id="clip1_8_10">
<rect width="3248.31" height="1208.53" fill="white" transform="translate(-1337.57 150.115) rotate(-9.5)"/>
</clipPath>
</defs>
</svg>
